<svg xmlns="http://www.w3.org/2000/svg" xmlns:xlink="http://www.w3.org/1999/xlink" width="1440" height="1084" viewBox="0 0 1440 1084">
    <defs>
        <path id="a" d="M0 0h1440v1084H0z"/>
    </defs>
    <g fill="none" fill-rule="evenodd">
        <mask id="b" fill="#fff">
            <use xlink:href="#a"/>
        </mask>
        <use fill="#FFF" xlink:href="#a"/>
        <g mask="url(#b)">
            <path fill="#2F90E5" d="M-94 528.532C9.917 556.844 126.375 571 255.375 571c193.5 0 231.125-93.782 424.625-93.782S935.85 571 1129.35 571c129 0 237.217-14.156 324.65-42.468V26H-94v502.532z"/>
            <path fill="#F9FBFD" fill-opacity=".25" d="M-50 529.468C53.917 501.156 170.375 487 299.375 487c193.5 0 231.125 93.782 424.625 93.782S1011 461 1204.5 461c129 0 226.833 22.823 293.5 68.468V1112H-50V529.468z"/>
            <path fill="#F9FBFD" fill-opacity=".25" d="M-469 439.468C-337.225 411.156-189.545 397-25.962 397c245.375 0 293.087 93.782 538.462 93.782S836.94 397 1082.315 397c163.584 0 300.812 14.156 411.685 42.468V1082l-1963-10V439.468z"/>
            <path fill="#F9FBFD" fill-opacity=".25" d="M-14 463.468C112.472 435.156 254.208 421 411.208 421c235.5 0 281.292 93.782 516.792 93.782 235.5 0 311.383-93.782 546.883-93.782 157 0 288.706 14.156 395.117 42.468V1086H-14V463.468z"/>
            <path fill="#2F90E5" d="M0 0h1440v72.929H0z"/>
            <path fill="#FBFDFD" d="M0 671h1440v1396H0z"/>
        </g>
    </g>
</svg>
